<svg xmlns="http://www.w3.org/2000/svg" viewBox="0 0 48 48" width="144" height="144"><path fill="#42a5f5" d="m42.911 24.54-15.679-6.214A8.83 8.83 0 0 0 26 17.95V26a2 2 0 1 1-4 0v-8.049a8.737 8.737 0 0 0-1.232.376L5.089 24.54c-1.4.555-1.466 2.488-.107 3.135l13.365 6.365a13.165 13.165 0 0 0 11.307 0l13.365-6.365c1.358-.646 1.292-2.58-.108-3.135z"/><ellipse cx="12" cy="26.5" fill="#aed581" rx="3" ry="1.5"/><path fill="#1e88e5" d="M30.42 36.442c-1.99.946-4.21 1.446-6.42 1.446s-4.43-.501-6.421-1.446c0 0-8.997-4.284-12.344-5.881A.86.86 0 0 0 4 31.329v2.319c0 .33.192.631.494.773l12.981 6.12a15.32 15.32 0 0 0 13.049 0l12.981-6.12a.855.855 0 0 0 .495-.773v-2.314a.863.863 0 0 0-1.239-.771c-3.351 1.599-12.341 5.879-12.341 5.879z"/><circle cx="24" cy="11" r="5" fill="#ef5350"/></svg>